<mxfile host="65bd71144e">
    <diagram id="WWbYQ2NUVVgn80VWuXI2" name="ページ1">
        <mxGraphModel dx="2655" dy="1444" grid="1" gridSize="10" guides="1" tooltips="1" connect="1" arrows="1" fold="1" page="1" pageScale="1" pageWidth="1600" pageHeight="900" math="0" shadow="0">
            <root>
                <mxCell id="0"/>
                <mxCell id="1" parent="0"/>
                <mxCell id="2" value="&lt;div class=&quot;sessionsLayoutHeader_title&quot; style=&quot;box-sizing: inherit ; margin: 30px 0px ; letter-spacing: 1px ; font-size: 36px ; font-weight: 400 ; color: rgb(74 , 74 , 74) ; font-style: normal ; text-indent: 0px ; text-transform: none ; word-spacing: 0px ; background-color: rgb(255 , 255 , 255)&quot;&gt;&lt;br&gt;&lt;/div&gt;" style="html=1;shadow=0;dashed=0;fontSize=16;align=left;spacing=15;container=0;fillColor=#fff;fontColor=#333333;strokeColor=#666666;" parent="1" vertex="1">
                    <mxGeometry y="-1" width="1600" height="900" as="geometry"/>
                </mxCell>
                <mxCell id="13" value="" style="endArrow=none;html=1;strokeColor=#5c93bb2b;strokeWidth=3;entryX=1;entryY=0.067;entryDx=0;entryDy=0;entryPerimeter=0;exitX=-0.001;exitY=0.069;exitDx=0;exitDy=0;exitPerimeter=0;" parent="1" source="2" target="2" edge="1">
                    <mxGeometry width="50" height="50" relative="1" as="geometry">
                        <mxPoint x="-0.4" y="70" as="sourcePoint"/>
                        <mxPoint x="1759.6" as="targetPoint"/>
                    </mxGeometry>
                </mxCell>
                <mxCell id="14" value="ロゴ" style="rounded=0;whiteSpace=wrap;html=1;strokeWidth=3;fillColor=#dae8fc;strokeColor=#6c8ebf;fontStyle=1;fontSize=26;labelBackgroundColor=none;fontColor=#301AF0;" parent="1" vertex="1">
                    <mxGeometry x="39.6" y="10" width="120" height="50" as="geometry"/>
                </mxCell>
                <mxCell id="20" value="&lt;font style=&quot;font-size: 12px&quot;&gt;編集を保存&lt;/font&gt;" style="html=1;shadow=0;dashed=1;shape=mxgraph.bootstrap.rrect;rSize=5;fillColor=#fff;strokeColor=#6c767d;align=center;spacing=15;fontSize=14;fontColor=#6c767d;" parent="1" vertex="1">
                    <mxGeometry x="870" y="150" width="120" height="30" as="geometry"/>
                </mxCell>
                <mxCell id="25" value="" style="verticalLabelPosition=bottom;shadow=0;dashed=0;align=center;html=1;verticalAlign=top;strokeWidth=1;shape=mxgraph.mockup.containers.userFemale;strokeColor=#666666;strokeColor2=#008cff;fontSize=12;fontColor=#FFFFFF;fillColor=#3EA8FF;" parent="1" vertex="1">
                    <mxGeometry x="610" y="90" width="90" height="90" as="geometry"/>
                </mxCell>
                <mxCell id="71" value="記事作成" style="html=1;shadow=0;dashed=1;shape=mxgraph.bootstrap.rrect;rSize=5;fillColor=#3EA8FF;strokeColor=#FFFFFF;align=center;spacing=15;fontSize=14;fontColor=#FFFFFF;fontStyle=1" parent="1" vertex="1">
                    <mxGeometry x="1445" y="15" width="120" height="30" as="geometry"/>
                </mxCell>
                <mxCell id="80" value="&lt;font style=&quot;font-size: 10px;&quot;&gt;変更する&lt;/font&gt;" style="html=1;shadow=0;dashed=1;shape=mxgraph.bootstrap.rrect;rSize=5;fillColor=#fff;strokeColor=#6c767d;align=center;spacing=15;fontSize=10;fontColor=#6c767d;gradientColor=none;opacity=80;" vertex="1" parent="1">
                    <mxGeometry x="630" y="155" width="50" height="20" as="geometry"/>
                </mxCell>
                <mxCell id="85" value="&lt;span style=&quot;font-size: 18px&quot;&gt;&lt;font&gt;ユーザー名 / テストテストテストテストテス&lt;/font&gt;&lt;/span&gt;" style="html=1;shadow=0;dashed=0;shape=mxgraph.bootstrap.rrect;rSize=5;fillColor=#f1f5f9;strokeColor=#999999;align=left;spacing=2;fontSize=14;fontColor=#6C767D;rounded=0;opacity=80;spacingTop=5;" vertex="1" parent="1">
                    <mxGeometry x="605" y="190" width="385" height="30" as="geometry"/>
                </mxCell>
                <mxCell id="87" value="自己紹介メッセージ / テストテストテストテストテストテストテストテストテストテストテストテストテストテストテストテストテストテストテストテストテストテストテストテストテストテストテストテストテストテストテストテストテストテストテストテストテストテストテストテ" style="text;strokeColor=#999999;fillColor=#F1F5F9;align=left;verticalAlign=top;rounded=1;labelBackgroundColor=none;fontSize=12;fontColor=#6C767D;horizontal=1;whiteSpace=wrap;html=1;arcSize=5;opacity=80;" vertex="1" parent="1">
                    <mxGeometry x="605" y="230" width="385" height="90" as="geometry"/>
                </mxCell>
                <mxCell id="89" value="退会する" style="html=1;shadow=0;dashed=1;shape=mxgraph.bootstrap.rrect;rSize=5;fillColor=#d80073;strokeColor=#A50040;align=center;spacing=15;fontSize=14;fontColor=#ffffff;fontStyle=1" vertex="1" parent="1">
                    <mxGeometry x="870" y="435" width="120" height="30" as="geometry"/>
                </mxCell>
            </root>
        </mxGraphModel>
    </diagram>
</mxfile>